<?xml version="1.0" standalone="no"?><!DOCTYPE svg PUBLIC "-//W3C//DTD SVG 1.1//EN" "http://www.w3.org/Graphics/SVG/1.1/DTD/svg11.dtd"><svg t="1627737926848" class="icon" viewBox="0 0 1024 1024" version="1.1" xmlns="http://www.w3.org/2000/svg" p-id="1075" xmlns:xlink="http://www.w3.org/1999/xlink" width="200" height="200"><defs><style type="text/css"></style></defs><path d="M512 512m-430.08 0a430.08 430.08 0 1 0 860.16 0 430.08 430.08 0 1 0-860.16 0Z" fill="#FFDD50" p-id="1076"></path><path d="M512 960c-247.02976 0-448-200.97024-448-448S264.97024 64 512 64s448 200.97024 448 448-200.97024 448-448 448z m0-860.16c-227.26656 0-412.16 184.89344-412.16 412.16s184.89344 412.16 412.16 412.16 412.16-184.89344 412.16-412.16-184.89344-412.16-412.16-412.16z" fill="" p-id="1077"></path><path d="M512 512m-358.4 0a358.4 358.4 0 1 0 716.8 0 358.4 358.4 0 1 0-716.8 0Z" fill="#FFDD50" p-id="1078"></path><path d="M512 888.32c-207.50336 0-376.32-168.81664-376.32-376.32S304.49664 135.68 512 135.68s376.32 168.81664 376.32 376.32-168.81664 376.32-376.32 376.32z m0-716.8c-187.74016 0-340.48 152.73984-340.48 340.48s152.73984 340.48 340.48 340.48 340.48-152.73984 340.48-340.48-152.73984-340.48-340.48-340.48z" fill="" p-id="1079"></path><path d="M719.17568 359.68H304.82432a17.92 17.92 0 1 1 0-35.84h414.35136a17.92 17.92 0 1 1 0 35.84zM616.96 530.1504h-209.92a17.92 17.92 0 1 1 0-35.84h209.92a17.92 17.92 0 1 1 0 35.84zM759.91552 691.2H264.08448a17.92 17.92 0 1 1 0-35.84h495.83104a17.92 17.92 0 1 1 0 35.84z" fill="" p-id="1080"></path><path d="M512 781.55776a17.92 17.92 0 0 1-17.92-17.92V265.48224a17.92 17.92 0 1 1 35.84 0v498.15552a17.92 17.92 0 0 1-17.92 17.92z" fill="" p-id="1081"></path><path d="M587.83744 627.84H436.16256c-64.40448 0-116.79744-52.39296-116.79744-116.79744C319.36 446.63808 371.75296 394.24 436.16256 394.24h151.68c64.40448 0 116.79744 52.39808 116.79744 116.79744 0 64.4096-52.39296 116.80256-116.80256 116.80256zM436.16256 430.08c-44.64128 0-80.95744 36.31616-80.95744 80.95744s36.31616 80.95744 80.95744 80.95744h151.68c44.64128 0 80.95744-36.32128 80.95744-80.95744 0-44.64128-36.32128-80.95744-80.95744-80.95744H436.16256z" fill="" p-id="1082"></path></svg>